<?xml version="1.0" encoding="UTF-8" standalone="no"?>
<!-- Created with Inkscape (http://www.inkscape.org/) -->

<svg
   xmlns:dc="http://purl.org/dc/elements/1.1/"
   xmlns:cc="http://creativecommons.org/ns#"
   xmlns:rdf="http://www.w3.org/1999/02/22-rdf-syntax-ns#"
   xmlns:svg="http://www.w3.org/2000/svg"
   xmlns="http://www.w3.org/2000/svg"
   xmlns:sodipodi="http://sodipodi.sourceforge.net/DTD/sodipodi-0.dtd"
   xmlns:inkscape="http://www.inkscape.org/namespaces/inkscape"
   id="svg2"
   version="1.1"
   inkscape:version="0.48.5 r10040"
   width="16"
   height="16"
   sodipodi:docname="favicon.png"
   inkscape:export-filename="/Users/lgarron/Downloads/16.png"
   inkscape:export-xdpi="90"
   inkscape:export-ydpi="90">
  <metadata
     id="metadata8">
    <rdf:RDF>
      <cc:Work
         rdf:about="">
        <dc:format>image/svg+xml</dc:format>
        <dc:type
           rdf:resource="http://purl.org/dc/dcmitype/StillImage" />
        <dc:title></dc:title>
      </cc:Work>
    </rdf:RDF>
  </metadata>
  <defs
     id="defs6" />
  <sodipodi:namedview
     pagecolor="#ffffff"
     bordercolor="#666666"
     borderopacity="1"
     objecttolerance="10"
     gridtolerance="10"
     guidetolerance="10"
     inkscape:pageopacity="0"
     inkscape:pageshadow="2"
     inkscape:window-width="1280"
     inkscape:window-height="751"
     id="namedview4"
     showgrid="true"
     inkscape:zoom="20.85965"
     inkscape:cx="-0.53322082"
     inkscape:cy="8"
     inkscape:window-x="0"
     inkscape:window-y="0"
     inkscape:window-maximized="1"
     inkscape:current-layer="svg2">
    <inkscape:grid
       type="xygrid"
       id="grid2987"
       empspacing="5"
       visible="true"
       enabled="true"
       snapvisiblegridlinesonly="true" />
  </sodipodi:namedview>
  <path
     style="opacity:0.78017243;fill:#000000;fill-opacity:1;stroke-width:2;stroke-miterlimit:4;stroke-dasharray:none;stroke-dashoffset:0"
     d="M 8 0 C 3.581722 2.3684758e-15 0 3.581722 0 8 C 0 12.418278 3.581722 16 8 16 C 12.418278 16 16 12.418278 16 8 C 16 3.581722 12.418278 -1.7763568e-15 8 0 z M 8 2 C 11.313708 2 14 4.6862915 14 8 C 14 11.313708 11.313708 14 8 14 C 4.6862915 14 2 11.313708 2 8 C 2 4.6862915 4.6862915 2 8 2 z "
     id="path2989" />
  <path
     inkscape:connector-curvature="0"
     style="opacity:1;fill:#ff0000;fill-opacity:1;stroke-width:2;stroke-miterlimit:4;stroke-dasharray:none;stroke-dashoffset:0"
     d="M 8,0 C 6.5387089,0 5.1789576,0.40947539 4,1.09375 L 5,2.8125 C 5.8825339,2.3019679 6.9071134,2 8,2 c 3.313708,0 6,2.6862915 6,6 l 2,0 C 16,3.581722 12.418278,0 8,0 z"
     id="rect3153" />
  <path
     inkscape:connector-curvature="0"
     id="path3169"
     d="m 1.0717968,12 c 0.7306456,1.265515 1.7651373,2.238356 2.9472153,2.917226 l 0.9884811,-1.7254 C 4.1240925,12.682795 3.3502909,11.946467 2.8038476,11 1.1469936,8.1302445 2.1302443,4.4607017 5,2.8038474 L 4,1.0717966 C 0.17365903,3.2809356 -1.1373422,8.1736588 1.0717968,12 z"
     style="opacity:1;fill:#bf8300;fill-opacity:1;stroke-width:2;stroke-miterlimit:4;stroke-dasharray:none;stroke-dashoffset:0" />
  <path
     inkscape:connector-curvature="0"
     id="path3175"
     d="m 14.928203,12 c 0.730646,-1.265515 1.055905,-2.6478323 1.052785,-4.0109768 l -1.988481,0.00665 C 13.993373,9.0152364 13.742596,10.053532 13.196152,11 11.539298,13.869755 7.8697555,14.853006 4.9999998,13.196152 l -1,1.732051 C 7.8263408,17.137342 12.719064,15.826341 14.928203,12 z"
     style="opacity:0.78017243000000003;fill:#008000;fill-opacity:1;stroke-width:2;stroke-miterlimit:4;stroke-dasharray:none;stroke-dashoffset:0" />
  <rect
     style="opacity:0.78017243000000003;fill:#666666;fill-opacity:1;stroke-width:2;stroke-miterlimit:4;stroke-dasharray:none;stroke-dashoffset:0"
     id="rect3951"
     width="8"
     height="5"
     x="4"
     y="7" />
  <path
     style="opacity:0.78017243;fill:#666666;fill-opacity:1;stroke-width:2;stroke-miterlimit:4;stroke-dasharray:none;stroke-dashoffset:0"
     d="M 8,3 C 6.3431458,3 5,4.3431458 5,6 L 6,6 C 6,4.8954305 6.8954305,4 8,4 c 1.1045695,0 2,0.8954305 2,2 l 1,0 C 11,4.3431458 9.6568542,3 8,3 z"
     id="path3953"
     inkscape:connector-curvature="0"
     sodipodi:nodetypes="sccsccs" />
  <rect
     style="opacity:0.78017243;fill:#666666;fill-opacity:1;stroke-width:2;stroke-miterlimit:4;stroke-dasharray:none;stroke-dashoffset:0"
     id="rect3961"
     width="1"
     height="1"
     x="5"
     y="6" />
  <rect
     style="opacity:0.78017243;fill:#666666;fill-opacity:1;stroke-width:2;stroke-miterlimit:4;stroke-dasharray:none;stroke-dashoffset:0"
     id="rect3963"
     width="1"
     height="1"
     x="10"
     y="6" />
</svg>
